<?xml version="1.0" encoding="UTF-8"?>
<svg xmlns="http://www.w3.org/2000/svg" width="160" height="34" viewBox="0 0 160 34" fill="none">
  <path d="M31.7216 8H30.9348C30.7108 7.99996 30.4916 8.06409 30.303 8.18478C30.1144 8.30546 29.9644 8.47766 29.8707 8.68094L22 25.7786H23.8319L26.0403 20.8947H35.8413L38.0748 25.7786H39.9058L31.7786 8.12341L31.7216 8ZM35.1763 19.4051H26.7286L30.9417 10.1119L35.1763 19.4051Z" fill="#F75B4C" />
  <path d="M40.8723 25.7786H41.7032C41.9306 25.7786 42.1488 25.6883 42.3096 25.5276C42.4705 25.3669 42.5608 25.1489 42.5608 24.9216V8H40.8723V25.7786Z" fill="#F75B4C" />
  <path d="M66.293 8L58.6486 21.2036L51.0042 8H49.6033V25.7795H51.2676V11.5505L58.1433 23.3681L58.2047 23.4743H59.0683L66.0063 11.5013L66.0305 25.7795H67.6948L67.6689 8H66.293Z" fill="black" />
  <path d="M76.108 12.3155C75.1115 12.3127 74.1223 12.4844 73.1853 12.8229C72.2994 13.1178 71.4818 13.5874 70.7808 14.2038L70.6417 14.3281L71.5054 15.5726L71.6842 15.4103C72.246 14.9116 72.8959 14.5221 73.6007 14.2616C74.3705 13.9742 75.186 13.828 76.0078 13.8301C77.2022 13.8301 78.1126 14.127 78.7154 14.7138C79.3183 15.3007 79.6421 16.1715 79.6421 17.3125V18.1418H75.4101C73.6776 18.1418 72.3872 18.5017 71.5736 19.2111C70.76 19.9206 70.3662 20.8397 70.3662 21.9729C70.3662 23.1414 70.8101 24.0977 71.6859 24.8157C72.5617 25.5338 73.7587 25.879 75.2426 25.879C76.3809 25.879 77.3741 25.6624 78.1972 25.2334C78.7794 24.9238 79.2895 24.4947 79.694 23.9743V25.7789H81.309V17.3608C81.309 15.721 80.8522 14.4593 79.9539 13.6135C79.0548 12.7513 77.7619 12.3155 76.108 12.3155ZM79.643 19.5331V21.7096C79.2811 22.5874 78.737 23.2631 78.0253 23.7317C77.3137 24.2004 76.4405 24.4403 75.4136 24.4403C74.3245 24.4403 73.4746 24.2125 72.8899 23.7671C72.3095 23.3089 72.0262 22.7056 72.0262 21.9245C72.0262 21.1737 72.2767 20.6032 72.7906 20.1803C73.3278 19.7488 74.2182 19.5331 75.4369 19.5331H79.643Z" fill="black" /> 
  <path d="M91.7525 19.0212C90.9489 18.7575 90.1263 18.5555 89.2919 18.4171C88.3936 18.2376 87.6811 18.0719 87.1836 17.9278C86.7464 17.7886 86.3429 17.5603 85.9986 17.2572C85.6929 16.9663 85.5435 16.5668 85.5435 16.0489C85.5435 15.387 85.8155 14.8674 86.3743 14.4592C86.9331 14.051 87.8227 13.8309 88.9792 13.8309C89.6643 13.8305 90.346 13.9275 91.0037 14.1192C91.6293 14.2974 92.2201 14.5805 92.7509 14.9563L92.9418 15.0927L93.7191 13.7343L93.5679 13.6221C93.0368 13.2285 92.3458 12.9083 91.515 12.6727C90.6981 12.4377 89.8525 12.3174 89.0025 12.3154C87.3892 12.3154 86.1178 12.6727 85.2239 13.377C84.33 14.0812 83.8774 14.9839 83.8774 16.0731C83.8774 16.9672 84.1219 17.6827 84.6038 18.2005C85.0702 18.702 85.6544 19.0793 86.3035 19.2983C87.1245 19.5609 87.9636 19.7628 88.8142 19.9024C89.6779 20.0655 90.3689 20.2226 90.8517 20.3684C91.2842 20.4897 91.6818 20.7118 92.0116 21.0166C92.3156 21.291 92.4624 21.6613 92.4624 22.1489C92.4624 22.8393 92.1843 23.3684 91.61 23.761C91.0356 24.1537 90.1098 24.3652 88.8531 24.3652C87.982 24.3674 87.1169 24.2215 86.2949 23.9337C85.496 23.6463 84.8327 23.2829 84.3248 22.8549L84.1314 22.6917L83.3489 24.0528L83.4758 24.1675C84.0243 24.6638 84.7921 25.0789 85.7594 25.4017C86.7417 25.7247 87.7697 25.8874 88.8039 25.8833C90.463 25.8833 91.7732 25.545 92.6991 24.8761C93.6491 24.1926 94.1267 23.2674 94.1267 22.1265C94.1267 21.2634 93.891 20.573 93.4254 20.0724C92.9693 19.582 92.3925 19.2195 91.7525 19.0212V19.0212Z" fill="black" />
  <path d="M103.445 23.7252C102.951 24.1714 102.34 24.3889 101.577 24.3889C100.846 24.3889 100.288 24.1938 99.9237 23.8158C99.5644 23.4111 99.3822 22.8078 99.3822 22.0224V13.903H103.501V12.4134H99.3805V9.58691H98.5073C98.2974 9.58691 98.0961 9.67018 97.9476 9.81841C97.7991 9.96664 97.7155 10.1677 97.7153 10.3775V12.4134H95.3333V13.903H97.7153V22.1459C97.7153 23.3058 98.0452 24.231 98.6956 24.8989C99.3468 25.5488 100.273 25.8785 101.451 25.8785C101.971 25.8803 102.489 25.8011 102.985 25.6438C103.455 25.49 103.887 25.2375 104.252 24.9033L104.375 24.7868L103.634 23.5517L103.445 23.7252Z" fill="black" />
  <path d="M114.578 13.1883C113.622 12.6084 112.525 12.3149 111.317 12.3149C110.163 12.3006 109.028 12.6027 108.035 13.1883C107.055 13.7742 106.256 14.6172 105.723 15.6256C105.179 16.6439 104.904 17.8116 104.904 19.0976C104.904 20.4008 105.197 21.5788 105.776 22.6006C106.363 23.6119 107.214 24.4446 108.238 25.0094C109.275 25.5867 110.469 25.8793 111.791 25.8793C112.765 25.8879 113.73 25.6967 114.627 25.3175C115.486 24.9638 116.246 24.4073 116.842 23.6958L116.957 23.556L115.949 22.4125L115.791 22.6084C115.331 23.1771 114.738 23.624 114.064 23.9099C113.274 24.223 112.428 24.3678 111.579 24.3351C110.729 24.3024 109.897 24.0929 109.133 23.72C108.371 23.319 107.731 22.7204 107.281 21.987C106.85 21.2632 106.6 20.446 106.553 19.605H117.668L117.708 19.0466C117.708 17.7599 117.423 16.5913 116.864 15.5746C116.343 14.5791 115.551 13.7516 114.578 13.1883V13.1883ZM106.585 18.2155C106.658 17.4552 106.894 16.7193 107.276 16.0579C107.68 15.3707 108.262 14.8055 108.961 14.4225C110.031 13.8105 111.297 13.6394 112.49 13.9456C113.684 14.2518 114.711 15.0112 115.353 16.0623C115.749 16.7179 115.987 17.4565 116.05 18.2199L106.585 18.2155Z" fill="black" />
  <path d="M123.079 13.112C122.455 13.4761 121.926 13.9838 121.537 14.593V12.4138H119.922V25.7788H121.587V18.8227C121.587 17.2814 121.977 16.0696 122.748 15.2204C123.52 14.3712 124.596 13.9259 125.944 13.9259L126.472 13.9699V12.3154H126.259C125.022 12.3154 123.95 12.5838 123.079 13.112Z" fill="black" />
  <path d="M137.294 20.0681C136.838 19.5789 136.261 19.218 135.621 19.0212C134.818 18.7575 133.995 18.5555 133.161 18.4171C132.262 18.2376 131.549 18.0719 131.053 17.9278C130.615 17.7886 130.211 17.5599 129.866 17.2563C129.559 16.9646 129.411 16.5659 129.411 16.0481C129.411 15.3861 129.683 14.8666 130.242 14.4584C130.813 14.0415 131.69 13.8301 132.846 13.8301C133.532 13.8295 134.213 13.9266 134.871 14.1183C135.497 14.2965 136.087 14.5796 136.618 14.9555L136.809 15.0918L137.586 13.7334L137.435 13.6212C136.905 13.2277 136.214 12.9083 135.382 12.6719C134.566 12.4372 133.72 12.3172 132.871 12.3154C131.258 12.3154 129.987 12.6727 129.093 13.377C128.199 14.0812 127.746 14.9839 127.746 16.0731C127.746 16.9672 127.991 17.6827 128.473 18.2005C128.939 18.7018 129.523 19.0791 130.172 19.2983C130.993 19.5608 131.832 19.7627 132.682 19.9024C133.546 20.0655 134.237 20.2217 134.721 20.3684C135.153 20.4901 135.55 20.7122 135.881 21.0166C136.184 21.291 136.331 21.6613 136.331 22.1489C136.331 22.8393 136.053 23.3684 135.479 23.761C134.905 24.1537 133.978 24.3652 132.722 24.3652C131.851 24.3674 130.986 24.2215 130.164 23.9337C129.365 23.6463 128.702 23.2829 128.194 22.8549L127.999 22.6917L127.222 24.051L127.349 24.1658C127.898 24.6629 128.666 25.078 129.632 25.4C130.614 25.723 131.643 25.8856 132.677 25.8815C134.336 25.8815 135.647 25.5432 136.572 24.8744C137.522 24.1908 138 23.2657 138 22.1247C137.992 21.2608 137.76 20.5695 137.294 20.0681Z" fill="black" />
</svg>